<?xml version="1.0" encoding="UTF-8"?>
<svg version="1.1" xmlns="http://www.w3.org/2000/svg" width="514" height="298">
<path d="M0 0 C169.62 0 339.24 0 514 0 C514 51.81 514 103.62 514 157 C344.38 157 174.76 157 0 157 C0 105.19 0 53.38 0 0 Z " fill="#FDB3B3" transform="translate(0,141)"/>
<path d="M0 0 C4.95 0 9.9 0 15 0 C15.4125 1.134375 15.825 2.26875 16.25 3.4375 C17.25020265 5.47374015 17.25020265 5.47374015 19 7 C22.07754056 7.57023736 24.9011892 7.62600991 28.02734375 7.5390625 C32.13401909 8.17584002 33.39490052 9.82351448 36 13 C36.62818909 16.00404358 36.62818909 16.00404358 36.63110352 19.37915039 C36.64363663 20.64719009 36.65616974 21.9152298 36.66908264 23.22169495 C36.65681524 24.59702587 36.64339535 25.97234693 36.62890625 27.34765625 C36.62973543 28.76582521 36.63219669 30.18399408 36.63621521 31.60215759 C36.63906882 34.56880756 36.6244148 37.53470069 36.59692383 40.5012207 C36.56280897 44.3001901 36.56887281 48.0978095 36.5875864 51.89684391 C36.59816304 54.82318847 36.58921341 57.74921976 36.57420158 60.6755352 C36.56902617 62.07613634 36.56949383 63.47677028 36.57574654 64.87736702 C36.58120684 66.83503589 36.55795536 68.79272107 36.53344727 70.75024414 C36.52724869 71.8632338 36.52105011 72.97622345 36.5146637 74.12294006 C35.88553044 77.63990484 34.77862952 78.82528207 32 81 C29.98535156 81.45410156 29.98535156 81.45410156 27.890625 81.390625 C27.13652344 81.37773437 26.38242188 81.36484375 25.60546875 81.3515625 C24.82816406 81.31804687 24.05085938 81.28453125 23.25 81.25 C22.45722656 81.23195313 21.66445312 81.21390625 20.84765625 81.1953125 C18.89791652 81.14833082 16.94880122 81.07659044 15 81 C15.020625 82.134375 15.04125 83.26875 15.0625 84.4375 C15 88 15 88 14 89 C12.00041636 89.04080783 9.99954746 89.04254356 8 89 C7.938125 90.051875 7.87625 91.10375 7.8125 92.1875 C6.85862552 96.66337256 5.46953013 98.12282867 2 101 C-3.13385531 103.56692765 -12.08413737 102.93838593 -17.48828125 101.19921875 C-24.82888216 96.91842744 -31.73598995 89.25441077 -34 81 C-34.44769067 76.44231954 -34.44098782 71.90113509 -34.44140625 67.32421875 C-34.45320204 65.99053007 -34.46657158 64.65685448 -34.48143005 63.32319641 C-34.517472 59.82379148 -34.53776656 56.32450244 -34.55297852 52.82495117 C-34.57787398 47.23623836 -34.61802512 41.64778192 -34.67487907 36.05930519 C-34.69099013 34.12419864 -34.69460635 32.18900078 -34.69789124 30.25382996 C-34.17920048 18.989743 -34.17920048 18.989743 -38 9 C-40.87306228 8.49904977 -40.87306228 8.49904977 -44 9 C-47.95231485 12.90662335 -49.27401784 17.11871371 -50.75 22.3125 C-50.97042969 23.05306641 -51.19085938 23.79363281 -51.41796875 24.55664062 C-51.95555854 26.36808447 -52.47921445 28.18365367 -53 30 C-52.40832031 29.94199219 -51.81664063 29.88398438 -51.20703125 29.82421875 C-44.6919196 29.45223032 -44.6919196 29.45223032 -41 32.375 C-37.85080328 36.50832069 -37.50106274 38.7611588 -38 44 C-40.57808861 51.13061582 -45.37849767 56.34675734 -52 60 C-55.61170229 61.09301517 -57.20633766 61.40816921 -60.59765625 59.6640625 C-67.25621119 54.15571753 -72.32348551 49.0738587 -73.5 40.25 C-72.96056396 36.74366571 -72.15793284 34.79732034 -70 32 C-66.79619983 29.86413322 -65.98060033 29.76867825 -62.3125 29.875 C-61.10013672 29.90207031 -61.10013672 29.90207031 -59.86328125 29.9296875 C-59.24839844 29.95289063 -58.63351563 29.97609375 -58 30 C-57.608125 28.9275 -57.21625 27.855 -56.8125 26.75 C-56.20849542 25.16660483 -55.60430548 23.58328036 -55 22 C-54.63648437 21.00097656 -54.27296875 20.00195312 -53.8984375 18.97265625 C-49.78582389 8.24006138 -49.78582389 8.24006138 -44 5 C-40.375 4.375 -40.375 4.375 -37 5 C-33.28791277 8.31078051 -31.82697958 12.19175065 -31 17 C-30.7746744 21.40482565 -30.86266349 25.79466831 -30.9453125 30.203125 C-30.97061039 32.81900508 -30.99533191 35.43489078 -31.01953125 38.05078125 C-31.06684104 42.14975486 -31.12411127 46.24848322 -31.19189453 50.34716797 C-31.25635674 54.31985069 -31.28795582 58.29255003 -31.3203125 62.265625 C-31.34723175 63.47744446 -31.374151 64.68926392 -31.40188599 65.93780518 C-31.4639658 76.57427049 -29.40991529 85.53322829 -21.84375 93.33984375 C-16.74673535 97.92931668 -12.28701261 99.64272814 -5.37109375 99.31640625 C-1.9792637 98.86378972 0.25644681 98.05766489 3 96 C4.43968727 92.93638223 4.43968727 92.93638223 5 90 C4.360625 89.855625 3.72125 89.71125 3.0625 89.5625 C1 89 1 89 0 88 C-0.04092937 85.66702567 -0.04241723 83.33294775 0 81 C-0.99 81 -1.98 81 -3 81 C-3 83.31 -3 85.62 -3 88 C-4.32 88 -5.64 88 -7 88 C-7 85.69 -7 83.38 -7 81 C-7.67546875 81.05800781 -8.3509375 81.11601562 -9.046875 81.17578125 C-10.38492188 81.24345703 -10.38492188 81.24345703 -11.75 81.3125 C-12.63171875 81.37050781 -13.5134375 81.42851562 -14.421875 81.48828125 C-17 81 -17 81 -19.12779236 78.8614502 C-21.32714379 75.49999902 -21.51085391 73.71243401 -21.53344727 69.72851562 C-21.5492836 68.48372437 -21.56511993 67.23893311 -21.58143616 65.9564209 C-21.5775947 64.6063601 -21.57255566 63.25630226 -21.56640625 61.90625 C-21.5716448 60.51289454 -21.57792214 59.11954264 -21.58518982 57.72619629 C-21.59558029 54.81094635 -21.59105223 51.89618496 -21.57641602 48.98095703 C-21.55922089 45.25144624 -21.58273641 41.52347509 -21.61790562 37.79413605 C-21.63990151 34.91837423 -21.63843327 32.04297973 -21.6301403 29.16716003 C-21.62932212 27.79247854 -21.63616029 26.41776971 -21.65091133 25.04316711 C-21.76068332 12.96375493 -21.76068332 12.96375493 -18.64648438 9.64794922 C-15.4794817 7.67587652 -13.63946154 7.52203773 -9.9375 7.625 C-5.69407183 7.61079426 -5.69407183 7.61079426 -2.33203125 5.39453125 C-1.08239788 3.25426182 -1.08239788 3.25426182 0 0 Z " fill="#FB3C1F" transform="translate(94,165)"/>
<path d="M0 0 C4.95 0 9.9 0 15 0 C15.4125 1.134375 15.825 2.26875 16.25 3.4375 C17.25020265 5.47374015 17.25020265 5.47374015 19 7 C22.07754056 7.57023736 24.9011892 7.62600991 28.02734375 7.5390625 C32.13401909 8.17584002 33.39490052 9.82351448 36 13 C36.62818909 16.00404358 36.62818909 16.00404358 36.63110352 19.37915039 C36.64363663 20.64719009 36.65616974 21.9152298 36.66908264 23.22169495 C36.65681524 24.59702587 36.64339535 25.97234693 36.62890625 27.34765625 C36.62973543 28.76582521 36.63219669 30.18399408 36.63621521 31.60215759 C36.63906882 34.56880756 36.6244148 37.53470069 36.59692383 40.5012207 C36.56280897 44.3001901 36.56887281 48.0978095 36.5875864 51.89684391 C36.59816304 54.82318847 36.58921341 57.74921976 36.57420158 60.6755352 C36.56902617 62.07613634 36.56949383 63.47677028 36.57574654 64.87736702 C36.58120684 66.83503589 36.55795536 68.79272107 36.53344727 70.75024414 C36.52724869 71.8632338 36.52105011 72.97622345 36.5146637 74.12294006 C35.88553044 77.63990484 34.77862952 78.82528207 32 81 C29.98535156 81.45410156 29.98535156 81.45410156 27.890625 81.390625 C27.13652344 81.37773437 26.38242188 81.36484375 25.60546875 81.3515625 C24.82816406 81.31804687 24.05085938 81.28453125 23.25 81.25 C22.45722656 81.23195313 21.66445312 81.21390625 20.84765625 81.1953125 C18.89791652 81.14833082 16.94880122 81.07659044 15 81 C15 79.35 15 77.7 15 76 C15.99902344 75.93941406 16.99804688 75.87882812 18.02734375 75.81640625 C19.31769531 75.73261719 20.60804687 75.64882812 21.9375 75.5625 C23.22527344 75.48128906 24.51304688 75.40007812 25.83984375 75.31640625 C28.86023957 75.35080812 28.86023957 75.35080812 30 74 C30.09381302 72.15881971 30.11743954 70.31402359 30.11352539 68.47045898 C30.11344986 67.28931015 30.11337433 66.10816132 30.11329651 64.89122009 C30.10813522 63.6058284 30.10297394 62.32043671 30.09765625 60.99609375 C30.09553383 59.0338662 30.09553383 59.0338662 30.09336853 57.03199768 C30.0895441 53.54837141 30.07971446 50.06478661 30.06866455 46.58117676 C30.05844882 43.02873302 30.05381586 39.47628241 30.04882812 35.92382812 C30.03862232 28.94918209 30.01905064 21.97465003 30 15 C15.15 14.67 0.3 14.34 -15 14 C-14.67 34.13 -14.34 54.26 -14 75 C-11.69 75.33 -9.38 75.66 -7 76 C-7 77.65 -7 79.3 -7 81 C-8.58093717 81.1357675 -10.16526952 81.23234745 -11.75 81.3125 C-12.63171875 81.37050781 -13.5134375 81.42851562 -14.421875 81.48828125 C-17 81 -17 81 -19.12779236 78.8614502 C-21.32714379 75.49999902 -21.51085391 73.71243401 -21.53344727 69.72851562 C-21.5492836 68.48372437 -21.56511993 67.23893311 -21.58143616 65.9564209 C-21.5775947 64.6063601 -21.57255566 63.25630226 -21.56640625 61.90625 C-21.5716448 60.51289454 -21.57792214 59.11954264 -21.58518982 57.72619629 C-21.59558029 54.81094635 -21.59105223 51.89618496 -21.57641602 48.98095703 C-21.55922089 45.25144624 -21.58273641 41.52347509 -21.61790562 37.79413605 C-21.63990151 34.91837423 -21.63843327 32.04297973 -21.6301403 29.16716003 C-21.62932212 27.79247854 -21.63616029 26.41776971 -21.65091133 25.04316711 C-21.76068332 12.96375493 -21.76068332 12.96375493 -18.64648438 9.64794922 C-15.4794817 7.67587652 -13.63946154 7.52203773 -9.9375 7.625 C-5.69407183 7.61079426 -5.69407183 7.61079426 -2.33203125 5.39453125 C-1.08239788 3.25426182 -1.08239788 3.25426182 0 0 Z " fill="#B0180A" transform="translate(94,165)"/>
<path d="M0 0 C3.71208723 3.31078051 5.17302042 7.19175065 6 12 C6.2253256 16.40482565 6.13733651 20.79466831 6.0546875 25.203125 C6.02938961 27.81900508 6.00466809 30.43489078 5.98046875 33.05078125 C5.93315896 37.14975486 5.87588873 41.24848322 5.80810547 45.34716797 C5.74364326 49.31985069 5.71204418 53.29255003 5.6796875 57.265625 C5.65276825 58.47744446 5.625849 59.68926392 5.59811401 60.93780518 C5.5360342 71.57427049 7.59008471 80.53322829 15.15625 88.33984375 C20.25326465 92.92931668 24.71298739 94.64272814 31.62890625 94.31640625 C35.0207363 93.86378972 37.25644681 93.05766489 40 91 C41.43968727 87.93638223 41.43968727 87.93638223 42 85 C40.515 84.505 40.515 84.505 39 84 C40.32 84 41.64 84 43 84 C43 84.66 43 85.32 43 86 C43.66 86 44.32 86 45 86 C44.58534283 90.83766699 42.5801385 92.85646376 39 96 C33.86614469 98.56692765 24.91586263 97.93838593 19.51171875 96.19921875 C12.17111784 91.91842744 5.26401005 84.25441077 3 76 C2.55230933 71.44231954 2.55901218 66.90113509 2.55859375 62.32421875 C2.54679796 60.99053007 2.53342842 59.65685448 2.51856995 58.32319641 C2.482528 54.82379148 2.46223344 51.32450244 2.44702148 47.82495117 C2.42212602 42.23623836 2.38197488 36.64778192 2.32512093 31.05930519 C2.30900987 29.12419864 2.30539365 27.18900078 2.30210876 25.25382996 C2.82079952 13.989743 2.82079952 13.989743 -1 4 C-3.87306228 3.49904977 -3.87306228 3.49904977 -7 4 C-10.95231485 7.90662335 -12.27401784 12.11871371 -13.75 17.3125 C-13.97042969 18.05306641 -14.19085938 18.79363281 -14.41796875 19.55664062 C-14.95555854 21.36808447 -15.47921445 23.18365367 -16 25 C-15.40832031 24.94199219 -14.81664063 24.88398438 -14.20703125 24.82421875 C-7.6919196 24.45223032 -7.6919196 24.45223032 -4 27.375 C-0.85080328 31.50832069 -0.50106274 33.7611588 -1 39 C-3.57808861 46.13061582 -8.37849767 51.34675734 -15 55 C-18.61170229 56.09301517 -20.20633766 56.40816921 -23.59765625 54.6640625 C-30.25621119 49.15571753 -35.32348551 44.0738587 -36.5 35.25 C-35.96056396 31.74366571 -35.15793284 29.79732034 -33 27 C-29.79619983 24.86413322 -28.98060033 24.76867825 -25.3125 24.875 C-24.10013672 24.90207031 -24.10013672 24.90207031 -22.86328125 24.9296875 C-22.24839844 24.95289063 -21.63351563 24.97609375 -21 25 C-20.608125 23.9275 -20.21625 22.855 -19.8125 21.75 C-19.20849542 20.16660483 -18.60430548 18.58328036 -18 17 C-17.63648437 16.00097656 -17.27296875 15.00195312 -16.8984375 13.97265625 C-13.69061436 5.60127264 -10.47211427 -1.93928042 0 0 Z " fill="#FB3E22" transform="translate(57,170)"/>
<path d="M0 0 C14.85 0 29.7 0 45 0 C45 8.25 45 16.5 45 25 C41.09401772 26.95299114 37.23618551 26.76780862 33 26 C29.66308476 24.55573021 26.53405452 22.75392195 23.44262695 20.84594727 C19.1482571 18.27322255 16.14541257 17.3682138 11 18 C8.65862106 19.00936146 8.65862106 19.00936146 6.75 20.5 C3.27777778 23 3.27777778 23 0 23 C0 15.41 0 7.82 0 0 Z " fill="#FEFDFD" transform="translate(79,179)"/>
<path d="M0 0 C3.375 2 3.375 2 6 4 C6.33 3.34 6.66 2.68 7 2 C8.98 2 10.96 2 13 2 C13 10.91 13 19.82 13 29 C11.02 29 9.04 29 7 29 C6.67 28.01 6.34 27.02 6 26 C5.38125 26.495 4.7625 26.99 4.125 27.5 C-0.28776918 29.61812921 -4.18782528 29.83154379 -9 29 C-12.9005642 26.98989329 -15.35703162 24.04081412 -17 20 C-17.70857092 15.00704678 -17.55152691 11.08335642 -15.25 6.5625 C-10.77761309 1.46894824 -6.91183734 -0.67763111 0 0 Z " fill="#242121" transform="translate(413,208)"/>
<path d="M0 0 C3.81426331 2.05383409 6.90112826 4.15206848 9 8 C9.04456059 9.66607087 9.04940168 11.33406565 9 13 C6.23113877 14.00577013 3.46015896 15.00480147 0.6875 16 C-0.09818359 16.28617188 -0.88386719 16.57234375 -1.69335938 16.8671875 C-2.45068359 17.13789063 -3.20800781 17.40859375 -3.98828125 17.6875 C-4.68477783 17.93886719 -5.38127441 18.19023437 -6.09887695 18.44921875 C-8 19 -8 19 -11 19 C-9.98239527 21.13875077 -9.98239527 21.13875077 -8 23 C-4.1345378 23.35140565 -0.70432927 23.18538537 3 22 C3.66 23.65 4.32 25.3 5 27 C0.20613472 29.55672815 -4.7070184 29.67010504 -10 29 C-14.16685498 27.10597501 -15.62273112 25.66650835 -17.875 21.6875 C-19.3559408 16.83330515 -19.90839415 13.11958636 -17.875 8.375 C-12.95291465 2.14035856 -8.11613037 -0.68780766 0 0 Z " fill="#272323" transform="translate(242,208)"/>
<path d="M0 0 C4.32045672 2.24331407 7.07664095 4.4744493 9 9 C8.80053711 11.04980469 8.80053711 11.04980469 8 13 C6.35766602 14.00488281 6.35766602 14.00488281 4.25390625 14.703125 C3.12178711 15.08984375 3.12178711 15.08984375 1.96679688 15.484375 C1.17337891 15.73703125 0.37996094 15.9896875 -0.4375 16.25 C-1.22705078 16.518125 -2.01660156 16.78625 -2.83007812 17.0625 C-8.62775032 19 -8.62775032 19 -11 19 C-11 19.99 -11 20.98 -11 22 C-6.35601989 23.54799337 -1.67482292 23.49594333 3 22 C3.66 23.65 4.32 25.3 5 27 C0.41039063 29.36883064 -3.95098302 29.57881147 -9 29 C-13.20140665 27.44392346 -15.70248122 25.86950532 -18 22 C-19.7792361 16.6622917 -19.83210936 11.83757484 -17.5 6.6875 C-12.67592417 1.50161848 -7.17122494 -1.0624037 0 0 Z " fill="#262323" transform="translate(370,208)"/>
<path d="M0 0 C3.71208723 3.31078051 5.17302042 7.19175065 6 12 C6.2253256 16.40482565 6.13733651 20.79466831 6.0546875 25.203125 C6.02938961 27.81900508 6.00466809 30.43489078 5.98046875 33.05078125 C5.93315896 37.14975486 5.87588873 41.24848322 5.80810547 45.34716797 C5.74364326 49.31985069 5.71204418 53.29255003 5.6796875 57.265625 C5.65276825 58.47744446 5.625849 59.68926392 5.59811401 60.93780518 C5.5360342 71.57427049 7.59008471 80.53322829 15.15625 88.33984375 C20.25326465 92.92931668 24.71298739 94.64272814 31.62890625 94.31640625 C35.0207363 93.86378972 37.25644681 93.05766489 40 91 C41.43968727 87.93638223 41.43968727 87.93638223 42 85 C41.01 84.67 40.02 84.34 39 84 C40.32 84 41.64 84 43 84 C43 84.66 43 85.32 43 86 C43.66 86 44.32 86 45 86 C44.58534283 90.83766699 42.5801385 92.85646376 39 96 C33.86614469 98.56692765 24.91586263 97.93838593 19.51171875 96.19921875 C12.17111784 91.91842744 5.26401005 84.25441077 3 76 C2.55230933 71.44231954 2.55901218 66.90113509 2.55859375 62.32421875 C2.54679796 60.99053007 2.53342842 59.65685448 2.51856995 58.32319641 C2.482528 54.82379148 2.46223344 51.32450244 2.44702148 47.82495117 C2.42212602 42.23623836 2.38197488 36.64778192 2.32512093 31.05930519 C2.30900987 29.12419864 2.30539365 27.18900078 2.30210876 25.25382996 C2.82079952 13.989743 2.82079952 13.989743 -1 4 C-3.87306228 3.49904977 -3.87306228 3.49904977 -7 4 C-10.95231485 7.90662335 -12.27401784 12.11871371 -13.75 17.3125 C-13.97042969 18.05306641 -14.19085938 18.79363281 -14.41796875 19.55664062 C-14.95555854 21.36808447 -15.47921445 23.18365367 -16 25 C-16.99 24.34 -17.98 23.68 -19 23 C-17.24303012 14.42941523 -15.18422927 7.46317789 -9.125 1 C-5.86829736 -0.53256595 -3.54060208 -0.5058003 0 0 Z " fill="#EE472E" transform="translate(57,170)"/>
<path d="M0 0 C1.98 0 3.96 0 6 0 C6 13.86 6 27.72 6 42 C14.25 42 22.5 42 31 42 C31 43.98 31 45.96 31 48 C20.77 48 10.54 48 0 48 C0 32.16 0 16.32 0 0 Z " fill="#232020" transform="translate(261,189)"/>
<path d="M0 0 C1.98 0 3.96 0 6 0 C6 13.86 6 27.72 6 42 C14.25 42 22.5 42 31 42 C31 43.98 31 45.96 31 48 C20.77 48 10.54 48 0 48 C0 32.16 0 16.32 0 0 Z " fill="#222020" transform="translate(146,189)"/>
<path d="M0 0 C2.69140625 1.828125 2.69140625 1.828125 5 5 C5.6158629 8.95454754 5.47092213 12.82269966 5.3125 16.8125 C5.28994141 17.88693359 5.26738281 18.96136719 5.24414062 20.06835938 C5.18535598 22.7136685 5.10323957 25.35611413 5 28 C2.69 28 0.38 28 -2 28 C-2.02505615 27.36908447 -2.0501123 26.73816895 -2.07592773 26.08813477 C-2.19154137 23.24603175 -2.31442316 20.40428917 -2.4375 17.5625 C-2.47681641 16.56927734 -2.51613281 15.57605469 -2.55664062 14.55273438 C-2.59853516 13.60849609 -2.64042969 12.66425781 -2.68359375 11.69140625 C-2.72025146 10.81685791 -2.75690918 9.94230957 -2.79467773 9.04125977 C-2.78181066 7.0072598 -2.78181066 7.0072598 -4 6 C-8.16990664 5.57218327 -8.16990664 5.57218327 -11.8125 7.3125 C-14.54326705 11.19306371 -14.31950902 15.62643977 -14.5625 20.1875 C-14.60568359 20.93708984 -14.64886719 21.68667969 -14.69335938 22.45898438 C-14.79922685 24.30578375 -14.9000976 26.15286834 -15 28 C-16.98 28 -18.96 28 -21 28 C-21 18.76 -21 9.52 -21 0 C-19.35 0 -17.7 0 -16 0 C-15.34 0.99 -14.68 1.98 -14 3 C-12.4840625 1.9790625 -12.4840625 1.9790625 -10.9375 0.9375 C-6.96545797 -1.30931166 -4.4378235 -1.39709258 0 0 Z " fill="#2D2828" transform="translate(338,209)"/>
<path d="M0 0 C1.22589844 0.01353516 1.22589844 0.01353516 2.4765625 0.02734375 C3.41628906 0.04474609 3.41628906 0.04474609 4.375 0.0625 C4.705 1.0525 5.035 2.0425 5.375 3.0625 C5.045 3.7225 4.715 4.3825 4.375 5.0625 C2.05293475 5.76741267 -0.28093068 6.43462429 -2.625 7.0625 C-4.68422402 9.12172402 -4.03927579 13.27958124 -4.1875 16.125 C-4.23068359 16.88361328 -4.27386719 17.64222656 -4.31835938 18.42382812 C-4.42473633 20.30315438 -4.52539934 22.18280244 -4.625 24.0625 C-1.655 24.0625 1.315 24.0625 4.375 24.0625 C4.375 25.7125 4.375 27.3625 4.375 29.0625 C1.405 29.0625 -1.565 29.0625 -4.625 29.0625 C-4.625 36.3225 -4.625 43.5825 -4.625 51.0625 C-6.605 51.0625 -8.585 51.0625 -10.625 51.0625 C-10.625 43.8025 -10.625 36.5425 -10.625 29.0625 C-11.945 29.0625 -13.265 29.0625 -14.625 29.0625 C-14.625 27.4125 -14.625 25.7625 -14.625 24.0625 C-13.305 24.0625 -11.985 24.0625 -10.625 24.0625 C-10.67140625 22.90492188 -10.7178125 21.74734375 -10.765625 20.5546875 C-10.80316248 19.01565094 -10.83956051 17.4765863 -10.875 15.9375 C-10.90851563 15.17695313 -10.94203125 14.41640625 -10.9765625 13.6328125 C-11.06877024 8.28476374 -10.19027061 5.30121061 -6.625 1.0625 C-4.21954362 -0.14022819 -2.67503047 -0.03821472 0 0 Z " fill="#242121" transform="translate(214.625,185.9375)"/>
<path d="M0 0 C2.4375 1.5 2.4375 1.5 4 4 C4.94476566 8.76839269 4.67629941 11.96441653 2 16.0625 C-2.16005119 18.74919973 -4.10298688 18.6995733 -9 18 C-11.82319057 16.33504146 -12.69134465 15.02123005 -13.6328125 11.90625 C-14.07868472 9.47421971 -14.27183858 7.45970074 -14 5 C-9.64073804 -0.65525876 -6.87095845 -1.54004241 0 0 Z " fill="#F7B0B0" transform="translate(416,214)"/>
<path d="M0 0 C2.31 0 4.62 0 7 0 C7 9.24 7 18.48 7 28 C4.69 28 2.38 28 0 28 C0 18.76 0 9.52 0 0 Z " fill="#3E3333" transform="translate(185,209)"/>
<path d="M0 0 C3.80442348 3.39313446 4.99933205 7.08004925 6 12 C6.14174104 14.69307972 6.09475046 17.29961184 6 20 C5.34 20 4.68 20 4 20 C4 25.28 4 30.56 4 36 C3.67 36 3.34 36 3 36 C2.98018066 35.41621582 2.96036133 34.83243164 2.93994141 34.23095703 C2.84337139 31.52859732 2.73424027 28.82687606 2.625 26.125 C2.5940625 25.2071875 2.563125 24.289375 2.53125 23.34375 C2.61866582 13.02204545 2.61866582 13.02204545 -1 4 C-3.87306228 3.49904977 -3.87306228 3.49904977 -7 4 C-10.95231485 7.90662335 -12.27401784 12.11871371 -13.75 17.3125 C-13.97042969 18.05306641 -14.19085938 18.79363281 -14.41796875 19.55664062 C-14.95555854 21.36808447 -15.47921445 23.18365367 -16 25 C-16.99 24.34 -17.98 23.68 -19 23 C-17.24303012 14.42941523 -15.18422927 7.46317789 -9.125 1 C-5.86829736 -0.53256595 -3.54060208 -0.5058003 0 0 Z " fill="#E94D37" transform="translate(57,170)"/>
<path d="M0 0 C1.98 0 3.96 0 6 0 C6 8.91 6 17.82 6 27 C4.02 27 2.04 27 0 27 C0 18.09 0 9.18 0 0 Z " fill="#242121" transform="translate(437,210)"/>
<path d="M0 0 C1.98 0 3.96 0 6 0 C6 8.91 6 17.82 6 27 C4.02 27 2.04 27 0 27 C0 18.09 0 9.18 0 0 Z " fill="#272323" transform="translate(300,210)"/>
<path d="M0 0 C0.66 0 1.32 0 2 0 C2.13259615 18.02899699 1.85114719 35.9900876 1 54 C0.34 53.67 -0.32 53.34 -1 53 C-1.02512941 48.0236038 -1.04305808 43.04724629 -1.05493164 38.07080078 C-1.0598929 36.38557287 -1.06666403 34.70034909 -1.07543945 33.01513672 C-1.13146212 21.9621949 -0.84818667 11.02355796 0 0 Z " fill="#F93F22" transform="translate(61,190)"/>
<path d="M0 0 C0.99 0 1.98 0 3 0 C3.99 2.64 4.98 5.28 6 8 C8.34973818 6.10244856 8.34973818 6.10244856 8.125 2.875 C8.08375 1.92625 8.0425 0.9775 8 0 C8.66 0 9.32 0 10 0 C10.99 2.64 11.98 5.28 13 8 C14.77706209 5.33440687 15.87548273 2.9719385 17 0 C17.66 0 18.32 0 19 0 C18.43174347 5.54050113 16.37113483 10.03715966 14 15 C11.64046906 12.64046906 11.50858587 11.22104383 11 8 C10.34 8 9.68 8 9 8 C8.87625 8.78375 8.7525 9.5675 8.625 10.375 C8 13 8 13 6 15 C4.99539469 12.87717331 3.99644398 10.75166979 3 8.625 C2.443125 7.44164062 1.88625 6.25828125 1.3125 5.0390625 C0 2 0 2 0 0 Z " fill="#403434" transform="translate(115,253)"/>
<path d="M0 0 C2 2 2 2 2 5 C-2.95 6.65 -7.9 8.3 -13 10 C-13 4 -13 4 -10.4375 1.0625 C-6.87367845 -1.57862191 -4.23235238 -1.22087088 0 0 Z " fill="#F3ADAD" transform="translate(370,214)"/>
<path d="M0 0 C2 2 2 2 2 5 C-2.95 6.65 -7.9 8.3 -13 10 C-12 3 -12 3 -9.875 0.5 C-6.1136544 -1.46244118 -4.04480251 -1.0684384 0 0 Z " fill="#F4AEAE" transform="translate(242,214)"/>
<path d="M0 0 C1.670625 0.061875 1.670625 0.061875 3.375 0.125 C1.5644357 1.33204287 -0.25905856 2.5204129 -2.10546875 3.671875 C-5.63154504 7.10501595 -6.56297983 10.73282107 -7.9375 15.375 C-8.20111328 16.21546875 -8.46472656 17.0559375 -8.73632812 17.921875 C-9.3810273 19.98491235 -10.00509168 22.0543784 -10.625 24.125 C-11.615 23.465 -12.605 22.805 -13.625 22.125 C-9.15408491 0.3156581 -9.15408491 0.3156581 0 0 Z " fill="#F2452B" transform="translate(51.625,170.875)"/>
<path d="M0 0 C0 2.97 0 5.94 0 9 C-6.0546875 9.1953125 -6.0546875 9.1953125 -8 9 C-8.66 8.34 -9.32 7.68 -10 7 C-9.75 3.9375 -9.75 3.9375 -9 1 C-6.04335481 -0.4783226 -3.25770263 -0.06032783 0 0 Z " fill="#3E3333" transform="translate(234,259)"/>
<path d="M0 0 C0.66 0.66 1.32 1.32 2 2 C1.44444444 6.55555556 1.44444444 6.55555556 0 8 C-2.9375 8.1875 -2.9375 8.1875 -6 8 C-6.66 7.34 -7.32 6.68 -8 6 C-7.75 2.9375 -7.75 2.9375 -7 0 C-4.29393021 -1.35303489 -2.8671629 -0.7884698 0 0 Z " fill="#403434" transform="translate(421,260)"/>
<path d="M0 0 C5.56818182 0.56818182 5.56818182 0.56818182 7 2 C7.1875 4.4375 7.1875 4.4375 7 7 C5 9 5 9 1.9375 9.1875 C-1 9 -1 9 -2 8 C-2.1875 5.0625 -2.1875 5.0625 -2 2 C-1.34 1.34 -0.68 0.68 0 0 Z " fill="#2C2727" transform="translate(264,259)"/>
<path d="M0 0 C0.66 0 1.32 0 2 0 C2.33 2.64 2.66 5.28 3 8 C3.61875 7.79375 4.2375 7.5875 4.875 7.375 C5.57625 7.25125 6.2775 7.1275 7 7 C9 9 9 9 9.125 12.625 C9.08375 13.73875 9.0425 14.8525 9 16 C8.34 16 7.68 16 7 16 C7 13.69 7 11.38 7 9 C4.96758273 9.63979849 4.96758273 9.63979849 3 11 C2.18828772 13.55519921 2.18828772 13.55519921 2 16 C1.34 16 0.68 16 0 16 C0 10.72 0 5.44 0 0 Z " fill="#4A3B3B" transform="translate(299,252)"/>
<path d="M0 0 C2.625 0.375 2.625 0.375 5 1 C5 2.32 5 3.64 5 5 C3.02 5.99 3.02 5.99 1 7 C2.32 7 3.64 7 5 7 C5 7.66 5 8.32 5 9 C2.125 9.125 2.125 9.125 -1 9 C-1.66 8.34 -2.32 7.68 -3 7 C-2.67028521 3.70285207 -2.3773161 2.3773161 0 0 Z " fill="#5F4949" transform="translate(313,259)"/>
<path d="M0 0 C2.625 0.375 2.625 0.375 5 1 C5 2.32 5 3.64 5 5 C3.02 5.99 3.02 5.99 1 7 C2.32 7 3.64 7 5 7 C5 7.66 5 8.32 5 9 C2.125 9.125 2.125 9.125 -1 9 C-1.66 8.34 -2.32 7.68 -3 7 C-2.67028521 3.70285207 -2.3773161 2.3773161 0 0 Z " fill="#7E5E5E" transform="translate(353,259)"/>
<path d="M0 0 C0 1.32 0 2.64 0 4 C-1.65 4.33 -3.3 4.66 -5 5 C-5 5.66 -5 6.32 -5 7 C-3.68 6.67 -2.36 6.34 -1 6 C-0.67 6.66 -0.34 7.32 0 8 C-2.875 8.125 -2.875 8.125 -6 8 C-6.66 7.34 -7.32 6.68 -8 6 C-7.75 2.9375 -7.75 2.9375 -7 0 C-4.3333581 -1.33332095 -2.83319697 -0.67102033 0 0 Z " fill="#392F2F" transform="translate(394,260)"/>
<path d="M0 0 C0 1.32 0 2.64 0 4 C-1.65 4.33 -3.3 4.66 -5 5 C-5 5.66 -5 6.32 -5 7 C-3.68 6.67 -2.36 6.34 -1 6 C-0.67 6.66 -0.34 7.32 0 8 C-2.875 8.125 -2.875 8.125 -6 8 C-6.66 7.34 -7.32 6.68 -8 6 C-7.75 2.9375 -7.75 2.9375 -7 0 C-4.3333581 -1.33332095 -2.83319697 -0.67102033 0 0 Z " fill="#795B5B" transform="translate(252,260)"/>
<path d="M0 0 C2.625 0.375 2.625 0.375 5 1 C5 2.32 5 3.64 5 5 C3.35 5.33 1.7 5.66 0 6 C0 6.66 0 7.32 0 8 C1.32 7.67 2.64 7.34 4 7 C4.33 7.66 4.66 8.32 5 9 C2.125 9.125 2.125 9.125 -1 9 C-1.66 8.34 -2.32 7.68 -3 7 C-2.67028521 3.70285207 -2.3773161 2.3773161 0 0 Z " fill="#362D2D" transform="translate(151,259)"/>
<path d="M0 0 C2.625 0.375 2.625 0.375 5 1 C5 2.32 5 3.64 5 5 C3.35 5.33 1.7 5.66 0 6 C0 6.66 0 7.32 0 8 C1.32 7.67 2.64 7.34 4 7 C4.33 7.66 4.66 8.32 5 9 C2.125 9.125 2.125 9.125 -1 9 C-1.66 8.34 -2.32 7.68 -3 7 C-2.67028521 3.70285207 -2.3773161 2.3773161 0 0 Z " fill="#362D2D" transform="translate(201,259)"/>
<path d="M0 0 C0.763125 0.20625 1.52625 0.4125 2.3125 0.625 C2.6425 1.615 2.9725 2.605 3.3125 3.625 C1.3325 4.615 -0.6475 5.605 -2.6875 6.625 C-1.3675 6.625 -0.0475 6.625 1.3125 6.625 C1.3125 7.285 1.3125 7.945 1.3125 8.625 C-0.68704746 8.66754356 -2.68791636 8.66580783 -4.6875 8.625 C-5.6875 7.625 -5.6875 7.625 -5.9375 4.6875 C-5.855 3.676875 -5.7725 2.66625 -5.6875 1.625 C-2.6875 -0.375 -2.6875 -0.375 0 0 Z " fill="#382F2F" transform="translate(453.6875,259.375)"/>
<path d="M0 0 C1.32 0 2.64 0 4 0 C4 0.66 4 1.32 4 2 C4.66 2 5.32 2 6 2 C5.69558521 5.55150592 5.02406007 6.97138802 2.6875 9.75 C0.25520422 11.78634065 -0.92000563 12.6577784 -4 13 C-3.75 11.125 -3.75 11.125 -3 9 C-2.360625 8.71125 -1.72125 8.4225 -1.0625 8.125 C1.34703737 7.09494127 1.34703737 7.09494127 2.25 3.875 C2.4975 2.92625 2.745 1.9775 3 1 C2.01 0.67 1.02 0.34 0 0 Z " fill="#E84F39" transform="translate(96,254)"/>
<path d="M0 0 C0.66 0 1.32 0 2 0 C2.66 0.99 3.32 1.98 4 3 C4.33 2.01 4.66 1.02 5 0 C5.66 0 6.32 0 7 0 C7.66 0.99 8.32 1.98 9 3 C9.33 2.01 9.66 1.02 10 0 C10.66 0 11.32 0 12 0 C11.40138258 2.35171131 10.73075648 4.6859378 10 7 C9.01 7.495 9.01 7.495 8 8 C7.67 6.68 7.34 5.36 7 4 C6.34 4 5.68 4 5 4 C4.34 5.32 3.68 6.64 3 8 C0 2.25 0 2.25 0 0 Z " fill="#3B3030" transform="translate(372,260)"/>
<path d="M0 0 C0.7425 0.33 1.485 0.66 2.25 1 C7.5121552 2.40324139 12.5857837 2.15769562 18 2 C17.67 2.99 17.34 3.98 17 5 C14.93816367 5.08150744 12.87538651 5.1394194 10.8125 5.1875 C9.08966797 5.23970703 9.08966797 5.23970703 7.33203125 5.29296875 C3.72960801 4.97622579 1.90633161 4.08533398 -1 2 C-0.67 1.34 -0.34 0.68 0 0 Z " fill="#F64024" transform="translate(75,262)"/>
<path d="M0 0 C0.99 0.33 1.98 0.66 3 1 C3 3.64 3 6.28 3 9 C2.34 9 1.68 9 1 9 C1 14.28 1 19.56 1 25 C0.67 25 0.34 25 0 25 C0 16.75 0 8.5 0 0 Z " fill="#E15543" transform="translate(60,181)"/>
<path d="M0 0 C0 2.64 0 5.28 0 8 C-0.66 8 -1.32 8 -2 8 C-2 5.69 -2 3.38 -2 1 C-2.99 1.33 -3.98 1.66 -5 2 C-5.33 3.98 -5.66 5.96 -6 8 C-6.66 8 -7.32 8 -8 8 C-8 5.36 -8 2.72 -8 0 C-4.71023192 -1.09658936 -3.28696233 -0.79953138 0 0 Z " fill="#322B2B" transform="translate(445,260)"/>
<path d="M0 0 C0 2.64 0 5.28 0 8 C-0.66 8 -1.32 8 -2 8 C-2 5.69 -2 3.38 -2 1 C-2.99 1.33 -3.98 1.66 -5 2 C-5.33 3.98 -5.66 5.96 -6 8 C-6.66 8 -7.32 8 -8 8 C-8 5.36 -8 2.72 -8 0 C-4.71023192 -1.09658936 -3.28696233 -0.79953138 0 0 Z " fill="#382F2F" transform="translate(282,260)"/>
<path d="M0 0 C1.67542976 0.28604898 3.34385343 0.61781233 5 1 C5 2.65 5 4.3 5 6 C2.625 6.625 2.625 6.625 0 7 C-0.66 6.34 -1.32 5.68 -2 5 C-1.46428571 1.46428571 -1.46428571 1.46428571 0 0 Z " fill="#322B2B" transform="translate(438,196)"/>
<path d="M0 0 C0 2.64 0 5.28 0 8 C-0.66 8 -1.32 8 -2 8 C-2 5.69 -2 3.38 -2 1 C-2.99 1.33 -3.98 1.66 -5 2 C-5.33 3.98 -5.66 5.96 -6 8 C-6.66 8 -7.32 8 -8 8 C-8 5.36 -8 2.72 -8 0 C-4.71023192 -1.09658936 -3.28696233 -0.79953138 0 0 Z " fill="#372E2E" transform="translate(168,260)"/>
<path d="M0 0 C1.67542976 0.28604898 3.34385343 0.61781233 5 1 C4.67 2.65 4.34 4.3 4 6 C2.125 6.625 2.125 6.625 0 7 C-0.66 6.34 -1.32 5.68 -2 5 C-1.46428571 1.46428571 -1.46428571 1.46428571 0 0 Z " fill="#312A2A" transform="translate(386,230)"/>
<path d="M0 0 C2.0625 0.4375 2.0625 0.4375 4 1 C4.625 2.875 4.625 2.875 5 5 C4.34 5.66 3.68 6.32 3 7 C0.375 6.625 0.375 6.625 -2 6 C-1.125 1.125 -1.125 1.125 0 0 Z " fill="#2B2626" transform="translate(302,196)"/>
<path d="M0 0 C2.0625 0.4375 2.0625 0.4375 4 1 C4.625 2.875 4.625 2.875 5 5 C4.34 5.66 3.68 6.32 3 7 C0.375 6.625 0.375 6.625 -2 6 C-1.125 1.125 -1.125 1.125 0 0 Z " fill="#282424" transform="translate(187,196)"/>
<path d="M0 0 C0.33 0.66 0.66 1.32 1 2 C1.66 2 2.32 2 3 2 C2.71640113 3.4391134 2.42278601 4.87625518 2.125 6.3125 C1.96257813 7.11300781 1.80015625 7.91351563 1.6328125 8.73828125 C1 11 1 11 -1 14 C-2.62433191 11.49923002 -3.07333427 10.41017471 -2.5390625 7.421875 C-2.23742188 6.54015625 -1.93578125 5.6584375 -1.625 4.75 C-1.32851563 3.85796875 -1.03203125 2.9659375 -0.7265625 2.046875 C-0.48679688 1.37140625 -0.24703125 0.6959375 0 0 Z " fill="#E45947" transform="translate(41,181)"/>
<path d="M0 0 C1.32 0.33 2.64 0.66 4 1 C3.01 1.66 2.02 2.32 1 3 C1.99 3.66 2.98 4.32 4 5 C4 6.32 4 7.64 4 9 C2.02 9 0.04 9 -2 9 C-2 8.34 -2 7.68 -2 7 C-0.68 7.33 0.64 7.66 2 8 C2 7.34 2 6.68 2 6 C0.68 5.34 -0.64 4.68 -2 4 C-1.34 2.68 -0.68 1.36 0 0 Z " fill="#443737" transform="translate(211,259)"/>
<path d="M0 0 C0.66 0 1.32 0 2 0 C2.71033431 5.52967941 3.30267176 10.49983036 2 16 C1.34 16 0.68 16 0 16 C0 10.72 0 5.44 0 0 Z " fill="#302929" transform="translate(137,252)"/>
<path d="M0 0 C2.625 0.375 2.625 0.375 5 1 C3.02 1.99 3.02 1.99 1 3 C1 4.32 1 5.64 1 7 C2.32 7.66 3.64 8.32 5 9 C3.00045254 9.04254356 0.99958364 9.04080783 -1 9 C-2 8 -2 8 -2.1875 5.0625 C-2 2 -2 2 0 0 Z " fill="#3D3232" transform="translate(461,259)"/>
<path d="M0 0 C1.67542976 0.28604898 3.34385343 0.61781233 5 1 C4.67 2.65 4.34 4.3 4 6 C2.68 5.67 1.36 5.34 0 5 C-0.5625 3.0625 -0.5625 3.0625 -1 1 C-0.67 0.67 -0.34 0.34 0 0 Z " fill="#E6A4A4" transform="translate(227,261)"/>
<path d="M0 0 C0.66 0 1.32 0 2 0 C2 0.99 2 1.98 2 3 C2.66 3 3.32 3 4 3 C4 3.66 4 4.32 4 5 C3.34 5 2.68 5 2 5 C2 7.31 2 9.62 2 12 C1.34 12 0.68 12 0 12 C0 9.69 0 7.38 0 5 C-0.66 4.67 -1.32 4.34 -2 4 C-1.34 4 -0.68 4 0 4 C0 2.68 0 1.36 0 0 Z " fill="#392F2F" transform="translate(470,256)"/>
<path d="M0 0 C2.625 0.375 2.625 0.375 5 1 C3.02 1.99 3.02 1.99 1 3 C1 4.32 1 5.64 1 7 C2.32 7.66 3.64 8.32 5 9 C3.00045254 9.04254356 0.99958364 9.04080783 -1 9 C-2 8 -2 8 -2.1875 5.0625 C-2 2 -2 2 0 0 Z " fill="#3F3333" transform="translate(406,259)"/>
<path d="M0 0 C0.66 0 1.32 0 2 0 C2 0.99 2 1.98 2 3 C2.66 3 3.32 3 4 3 C4 3.66 4 4.32 4 5 C3.34 5 2.68 5 2 5 C2 7.31 2 9.62 2 12 C1.34 12 0.68 12 0 12 C0 9.69 0 7.38 0 5 C-0.66 4.67 -1.32 4.34 -2 4 C-1.34 4 -0.68 4 0 4 C0 2.68 0 1.36 0 0 Z " fill="#392F2F" transform="translate(293,256)"/>
<path d="M0 0 C3.69230769 0.69230769 3.69230769 0.69230769 5 2 C5.04092937 4.33297433 5.04241723 6.66705225 5 9 C4.01 9 3.02 9 2 9 C2 6.69 2 4.38 2 2 C1.01 1.67 0.02 1.34 -1 1 C-0.67 0.67 -0.34 0.34 0 0 Z " fill="#594545" transform="translate(429,259)"/>
<path d="M0 0 C0.99 0.33 1.98 0.66 3 1 C3.33 1.99 3.66 2.98 4 4 C4.66 2.68 5.32 1.36 6 0 C6.66 0 7.32 0 8 0 C6.125 5.75 6.125 5.75 5 8 C4.34 8 3.68 8 3 8 C0 2.25 0 2.25 0 0 Z " fill="#392F2F" transform="translate(188,260)"/>
<path d="M0 0 C1.32 0 2.64 0 4 0 C4 1.65 4 3.3 4 5 C2.68 5.33 1.36 5.66 0 6 C-0.38218767 4.34385343 -0.71395102 2.67542976 -1 1 C-0.67 0.67 -0.34 0.34 0 0 Z " fill="#E9A6A6" transform="translate(416,261)"/>
<path d="M0 0 C0.66 0.33 1.32 0.66 2 1 C1.01 2.485 1.01 2.485 0 4 C2.00032373 5.00016187 3.83125748 5.49396008 6 6 C6 6.66 6 7.32 6 8 C3.125 8.125 3.125 8.125 0 8 C-0.66 7.34 -1.32 6.68 -2 6 C-1.44444444 1.44444444 -1.44444444 1.44444444 0 0 Z " fill="#382F2F" transform="translate(352,260)"/>
<path d="M0 0 C1.98 0.495 1.98 0.495 4 1 C3.67 2.65 3.34 4.3 3 6 C1.68 5.67 0.36 5.34 -1 5 C-0.67 3.35 -0.34 1.7 0 0 Z " fill="#EFAAAA" transform="translate(265,261)"/>
<path d="M0 0 C0 0.66 0 1.32 0 2 C-0.99 2.66 -1.98 3.32 -3 4 C-3.72965366 6.56282742 -3.72965366 6.56282742 -4 9 C-4.66 9 -5.32 9 -6 9 C-6 6.36 -6 3.72 -6 1 C-3.92446352 0.4465236 -2.15634036 0 0 0 Z " fill="#3F3333" transform="translate(243,259)"/>
<path d="M0 0 C1.64826111 2.96687001 2.44271087 5.65626525 3 9 C2.01 9.33 1.02 9.66 0 10 C-2.125 5.375 -2.125 5.375 -1 2 C-0.67 1.34 -0.34 0.68 0 0 Z " fill="#E94C35" transform="translate(62,241)"/>
<path d="M0 0 C3.69230769 0.69230769 3.69230769 0.69230769 5 2 C5.04092937 4.33297433 5.04241723 6.66705225 5 9 C4.34 9 3.68 9 3 9 C2.896875 8.05125 2.79375 7.1025 2.6875 6.125 C2.31460705 2.70892499 2.31460705 2.70892499 -1 1 C-0.67 0.67 -0.34 0.34 0 0 Z " fill="#483939" transform="translate(343,259)"/>
<path d="M0 0 C2.0625 0.4375 2.0625 0.4375 4 1 C4 3.64 4 6.28 4 9 C3.34 9 2.68 9 2 9 C2 6.69 2 4.38 2 2 C1.01 1.67 0.02 1.34 -1 1 C-0.67 0.67 -0.34 0.34 0 0 Z " fill="#423535" transform="translate(141,259)"/>
<path d="M0 0 C0.33 0.99 0.66 1.98 1 3 C1.66 3.33 2.32 3.66 3 4 C2.67 4.66 2.34 5.32 2 6 C3.32 5.67 4.64 5.34 6 5 C6.33 5.66 6.66 6.32 7 7 C4.125 7.125 4.125 7.125 1 7 C0.34 6.34 -0.32 5.68 -1 5 C-0.625 2.375 -0.625 2.375 0 0 Z " fill="#2D2727" transform="translate(245,261)"/>
<path d="M0 0 C0.99 0.33 1.98 0.66 3 1 C3 1.99 3 2.98 3 4 C1.35 4.33 -0.3 4.66 -2 5 C-2 3.68 -2 2.36 -2 1 C-1.34 0.67 -0.68 0.34 0 0 Z " fill="#8A6666" transform="translate(451,259)"/>
<path d="M0 0 C0.99 0 1.98 0 3 0 C3.66 2.31 4.32 4.62 5 7 C4.34 7.66 3.68 8.32 3 9 C2.01 6.03 1.02 3.06 0 0 Z " fill="#4C3D3D" transform="translate(115,253)"/>
<path d="M0 0 C1.98 0.495 1.98 0.495 4 1 C3.67 2.32 3.34 3.64 3 5 C1.68 4.67 0.36 4.34 -1 4 C-0.67 2.68 -0.34 1.36 0 0 Z " fill="#EBA3A2" transform="translate(100,168)"/>
<path d="M0 0 C1.98 0 3.96 0 6 0 C5.67 0.99 5.34 1.98 5 3 C3.0625 3.75 3.0625 3.75 1 4 C0.34 3.67 -0.32 3.34 -1 3 C-0.67 2.01 -0.34 1.02 0 0 Z " fill="#956D6D" transform="translate(389,261)"/>
<path d="M0 0 C1.98 0 3.96 0 6 0 C5.67 0.99 5.34 1.98 5 3 C3.0625 3.75 3.0625 3.75 1 4 C0.34 3.67 -0.32 3.34 -1 3 C-0.67 2.01 -0.34 1.02 0 0 Z " fill="#946D6D" transform="translate(201,261)"/>
<path d="M0 0 C1.98 0 3.96 0 6 0 C5.67 0.99 5.34 1.98 5 3 C3.0625 3.75 3.0625 3.75 1 4 C0.34 3.67 -0.32 3.34 -1 3 C-0.67 2.01 -0.34 1.02 0 0 Z " fill="#946D6D" transform="translate(151,261)"/>
<path d="M0 0 C3.79379058 1.49041773 5.68343758 3.69062512 8 7 C8 7.66 8 8.32 8 9 C6 9 6 9 4.4921875 7.5390625 C3.95851562 6.90742188 3.42484375 6.27578125 2.875 5.625 C2.06675781 4.68527344 2.06675781 4.68527344 1.2421875 3.7265625 C0 2 0 2 0 0 Z " fill="#B5463F" transform="translate(43,229)"/>
<path d="M0 0 C0.66 0.33 1.32 0.66 2 1 C2.144375 1.639375 2.28875 2.27875 2.4375 2.9375 C2.86165035 5.38210855 2.86165035 5.38210855 6 7 C3.625 7.125 3.625 7.125 1 7 C0.34 6.34 -0.32 5.68 -1 5 C-0.625 2.375 -0.625 2.375 0 0 Z " fill="#322B2B" transform="translate(225,261)"/>
<path d="M0 0 C0.66 0 1.32 0 2 0 C3.15941038 3.47823115 2.70820884 5.45895578 2 9 C1.34 9 0.68 9 0 9 C0 6.03 0 3.06 0 0 Z " fill="#433636" transform="translate(425,259)"/>
<path d="M0 0 C0.66 0 1.32 0 2 0 C3.15941038 3.47823115 2.70820884 5.45895578 2 9 C1.34 9 0.68 9 0 9 C0 6.03 0 3.06 0 0 Z " fill="#493A3A" transform="translate(339,259)"/>
<path d="M0 0 C3.125 0.375 3.125 0.375 6 1 C5.34 1.66 4.68 2.32 4 3 C3.01 3 2.02 3 1 3 C0.34 3.99 -0.32 4.98 -1 6 C-1.625 4.125 -1.625 4.125 -2 2 C-1.34 1.34 -0.68 0.68 0 0 Z " fill="#4C3C3C" transform="translate(264,259)"/>
<path d="M0 0 C0.99 0.495 0.99 0.495 2 1 C2 1.66 2 2.32 2 3 C2.66 3 3.32 3 4 3 C3.67 4.65 3.34 6.3 3 8 C0.4345406 5.4345406 0.45953913 3.52313332 0 0 Z " fill="#312A2A" transform="translate(126,260)"/>
<path d="M0 0 C1.32 0.99 2.64 1.98 4 3 C3.67 4.65 3.34 6.3 3 8 C2.34 7.67 1.68 7.34 1 7 C0.59270772 4.67843403 0.25561323 2.3431213 0 0 Z " fill="#2F2929" transform="translate(119,260)"/>
<path d="M0 0 C0.33 0 0.66 0 1 0 C0.67 2.64 0.34 5.28 0 8 C-0.99 7.34 -1.98 6.68 -3 6 C-1.125 1.125 -1.125 1.125 0 0 Z " fill="#EB4C35" transform="translate(41,187)"/>
<path d="M0 0 C1.32 0 2.64 0 4 0 C4 1.32 4 2.64 4 4 C2.68 4 1.36 4 0 4 C0 2.68 0 1.36 0 0 Z " fill="#E51A1A" transform="translate(396,1)"/>
</svg>
